<svg xmlns="http://www.w3.org/2000/svg" fill="none" viewBox="-0.5 -0.5 200 200" id="Marketing-Target--Streamline-Bangalore.svg"><desc>Marketing Target Streamline Illustration: https://streamlinehq.com</desc><g id="Marketing-Marketing-target-01"><g id="color 2"><path id="Vector" fill="#869fff" d="M134.58768 93.658355a230.45593 230.45593 0 0 0 -25.124745 5.217779999999999l-0.04975 -1.069625 -20.878085 2.9790300000000003c-2.918335 3.27753 -4.25462 11.805675 -0.317405 17.439365000000002l-2.820825 14.396654999999999 -20.98455 -7.1838999999999995c-4.782965000000001 4.896395 -6.368 10.114175 -6.711275 16.97669l29.775375 11.26738a10.675355 10.675355 0 0 0 14.14094 -7.37295l5.217779999999999 -20.53083 -9.456479999999999 -2.3979500000000002c8.947040000000001 1.18604 22.74371 -3.644685 29.854975 -6.43168 -0.41591 7.127185 -0.7562 16.67421 -1.342255 27.2232a27.795325 27.795325 0 0 0 16.352825 1.039775c1.6258299999999999 -12.741969999999998 3.232755 -27.109769999999997 3.762095 -41.2925a9.984825 9.984825 0 0 0 -11.41862 -10.26044Z" stroke-width="1"></path><path id="Vector_2" fill="#869fff" d="m158.162215 67.153545 0.26467 3.0058949999999998 3.119325 -1.73926 -3.3839949999999996 -1.266635Z" stroke-width="1"></path></g><g id="color 1"><path id="Vector_3" fill="#0046ef" d="M151.52656000000002 63.410354999999996c-2.6467 -6.4675 -6.65456 -13.72503 -9.773885 -20.11492a86.366995 86.366995 0 0 1 -4.367055000000001 -10.17089 62.630275 62.630275 0 0 1 -2.627795 -10.605705 1.1561899999999998 1.1561899999999998 0 0 0 -0.43581 -0.7810750000000001 1.151215 1.151215 0 0 0 -1.294495 -0.07761 1.147235 1.147235 0 0 0 -0.5382950000000001 1.18007c0.34924499999999997 1.87458 0.796995 3.73125 1.342255 5.55807a73.006135 73.006135 0 0 0 6.673465 15.53991c3.383 6.27646 7.656525 13.34693 10.546999999999999 19.680105a0.2587 0.2587 0 0 0 0.478595 -0.00995 0.2587 0.2587 0 0 0 -0.00398 -0.19800500000000001Z" stroke-width="1"></path><path id="Vector_4" fill="#70c1cb" d="m88.5351 100.78554 -2.23079 -9.168925a17.332900000000002 17.332900000000002 0 0 0 0.434815 23.7805c-2.00393 -5.40484 -0.5482450000000001 -11.983780000000001 1.7959749999999999 -14.611575Z" stroke-width="1"></path><path id="Vector_5" fill="#70c1cb" d="M115.436915 97.38264c-2.00393 0.47262499999999996 -3.9889550000000003 0.9830599999999999 -5.97 1.5124 -0.15123999999999999 -3.10042 -0.26467 -7.580905 -0.32138500000000003 -9.751000000000001a17.202555 17.202555 0 0 1 6.291385 8.2386Z" stroke-width="1"></path><path id="Vector_6" fill="#70c1cb" d="m97.85526499999999 69.74352999999999 -2.552175 -2.15517c0.69451 0.156215 1.405935 0.2189 2.11736 0.18905 0.08159000000000001 0.667645 0.22686 1.326335 0.434815 1.9661199999999999Z" stroke-width="1"></path><path id="Vector_7" fill="#70c1cb" d="m88.27043 90.19874 -0.9830599999999999 5.463545 -1.2855400000000001 -5.2934 2.2685999999999997 -0.17014500000000002Z" stroke-width="1"></path><path id="Vector_8" fill="#70c1cb" d="m95.926955 123.13125 10.92709 2.6467 0.737295 -2.930275c-3.875525 0.6805800000000001 -8.091339999999999 1.05868 -11.664385000000001 0.28357499999999997Z" stroke-width="1"></path><path id="Vector_9" fill="#70c1cb" d="m116.11749499999999 83.941185 -7.07047 1.266635 -0.056715 -2.4198399999999998 7.127185 1.153205Z" stroke-width="1"></path><path id="Vector_10" fill="#0046ef" d="M153.1902 75.52846c-0.6049599999999999 6.91923 -2.552175 15.69115 -3.9889550000000003 22.629285 -0.7562 3.62976 -1.606925 7.67543 -2.15517 11.361905a35.89164 35.89164 0 0 0 0.18905 11.79672 0.9392799999999999 0.9392799999999999 0 0 0 0.44576 0.60695 0.9561949999999999 0.9561949999999999 0 0 0 0.74824 0.08954999999999999 0.982065 0.982065 0 0 0 0.6805800000000001 -1.194 33.944425 33.944425 0 0 1 -0.49152999999999997 -11.11614c0.434815 -3.6815 1.153205 -7.694335 1.7959749999999999 -11.324095 1.2238499999999999 -7.007785 2.908385 -15.793635 3.30539 -22.812365a0.26666 0.26666 0 0 0 -0.52934 -0.037809999999999996Z" stroke-width="1"></path><path id="Vector_11" fill="#70c1cb" d="M99.670145 60.25322a19.897015 19.897015 0 0 0 -0.7562 -1.531305c-4.118305 -7.770949999999999 -7.10828 -1.1342999999999999 -6.635655 2.11736 0.018904999999999998 0.586055 -0.28556499999999996 0.76018 -1.266635 0.15123999999999999 -2.0278099999999997 -1.258675 -3.173055 2.076565 0.5482450000000001 3.4974250000000002 0.17711 0.122385 0.315415 0.29252999999999996 0.398 0.49152999999999997 0.71839 2.23079 0.90744 3.6815 0.52934 5.06654 -0.2985 -2.985 -3.5700600000000002 -5.03072 -6.0117899999999995 -8.6565 -2.73625 -4.066565 4.0794999999999995 -11.210664999999999 7.67543 -11.45643 3.59593 -0.24576499999999998 3.780005 4.478495000000001 5.519265 10.32014Z" stroke-width="1"></path><path id="Vector_12" fill="#70c1cb" d="M139.408455 145.74163a27.6212 27.6212 0 0 1 -10.756945 -0.6965c-0.22686 1.644735 -0.434815 3.17604 -0.5482450000000001 4.858585 3.9004 4.271535 8.730129999999999 11.188775 16.90107 17.3926 -1.911395 -9.831595 -5.334194999999999 -16.44735 -5.595879999999999 -21.554685Z" stroke-width="1"></path><path id="Vector_13" fill="#70c1cb" d="M57.757760000000005 126.250575c-5.4725 2.46959 -13.401655 4.792915 -22.08104 10.794755 3.81682 0.802965 19.33882 0.725355 22.402425 1.3611600000000001a22.320835 22.320835 0 0 1 3.9889550000000003 -10.227605c-1.4934949999999998 -0.6994849999999999 -2.741225 -1.2855400000000001 -4.31034 -1.92831Z" stroke-width="1"></path><path id="Vector_14" fill="#70c1cb" d="m50.57386 58.6652 -9.206735 -6.975945 -5.576975 -16.730925000000003 9.168925 6.84361 5.6147849999999995 16.86326Z" stroke-width="1"></path><path id="Vector_15" fill="#70c1cb" d="m31.85791 44.6755 -17.638365 -0.49152999999999997L4.975 37.321455l17.770699999999998 0.5671499999999999 9.11221 6.7868949999999995Z" stroke-width="1"></path><path id="Vector_16" fill="#70c1cb" d="M83.525275 81.105435a0.9392799999999999 0.9392799999999999 0 1 1 -1.8705999999999998 0.17014500000000002 0.9392799999999999 0.9392799999999999 0 0 1 1.8705999999999998 -0.17014500000000002Z" stroke-width="1"></path><path id="Vector_17" fill="#70c1cb" d="M140.10794 68.83609a0.940275 0.940275 0 1 1 -1.871595 0.17014500000000002 0.940275 0.940275 0 0 1 1.871595 -0.17014500000000002Z" stroke-width="1"></path><path id="Vector_18" fill="#70c1cb" d="M168.257485 138.04729500000002v8.43163l-8.46944 2.87356 18.243325000000002 4.4426749999999995 -9.773885 -15.747865Z" stroke-width="1"></path></g><g id="outlines"><path id="Vector_19" stroke="#0046ef" stroke-linecap="round" stroke-linejoin="round" d="M99.17861500000001 73.18424c3.610855 9.168925 4.12129 16.277205000000002 4.385960000000001 25.502845" stroke-width="1"></path><path id="Vector_20" stroke="#0046ef" stroke-linecap="round" stroke-linejoin="round" d="M135.00358999999997 67.380405a22.28601 22.28601 0 0 1 2.49546 12.70416" stroke-width="1"></path><path id="Vector_21" stroke="#0046ef" stroke-linecap="round" stroke-linejoin="round" d="M41.72632 130.296245a63.44518 63.44518 0 0 1 106.05705 -67.736615" stroke-width="1"></path><path id="Vector_22" stroke="#0046ef" stroke-linecap="round" stroke-linejoin="round" d="M141.941725 67.62616999999999c0.9830599999999999 -0.28357499999999997 1.9531850000000002 -1.0566900000000001 2.9113700000000002 -3.346185 0.60894 -1.453695 0.86963 -1.471605 3.44071 -1.758165 3.0248 -0.337305 2.763115 -0.14925 3.44071 5.009825 0.166165 1.26763 -1.99 1.7959749999999999 -3.10042 -2.11736 0.888535 3.0058949999999998 -0.132335 5.33121 -2.098455 6.368" stroke-width="1"></path><path id="Vector_23" stroke="#0046ef" stroke-linecap="round" stroke-linejoin="round" d="M86.739125 115.42a17.33091 17.33091 0 0 1 -0.434815 -23.7805" stroke-width="1"></path><path id="Vector_24" stroke="#0046ef" stroke-linecap="round" stroke-linejoin="round" d="M109.14155 89.14005999999999a17.5319 17.5319 0 0 1 6.295365 8.24258" stroke-width="1"></path><path id="Vector_25" stroke="#0046ef" stroke-linecap="round" stroke-linejoin="round" d="M131.09025499999998 158.1055a63.495925 63.495925 0 0 1 -71.97431999999999 -5.60185 63.476025 63.476025 0 0 1 -13.170815 -14.63247" stroke-width="1"></path><path id="Vector_26" stroke="#0046ef" stroke-linecap="round" stroke-linejoin="round" d="M155.817 74.77226a63.535725 63.535725 0 0 1 -15.27723 76.5752" stroke-width="1"></path><path id="Vector_27" stroke="#0046ef" stroke-linecap="round" stroke-linejoin="round" d="M65.64015 125.85357a40.55222 40.55222 0 0 1 -5.373 -33.594184999999996" stroke-width="1"></path><path id="Vector_28" stroke="#0046ef" stroke-linecap="round" stroke-linejoin="round" d="M126.45853 133.01856500000002a40.27959 40.27959 0 0 1 -23.801395 10.492275 1.82881 1.82881 0 0 1 -0.32138500000000003 0.018904999999999998" stroke-width="1"></path><path id="Vector_29" stroke="#0046ef" stroke-linecap="round" stroke-linejoin="round" d="M132.791705 80.954195a40.240784999999995 40.240784999999995 0 0 1 5.6147849999999995 12.8554" stroke-width="1"></path><path id="Vector_30" stroke="#0046ef" stroke-linecap="round" stroke-linejoin="round" d="M100.61539499999999 62.918825a40.240784999999995 40.240784999999995 0 0 1 21.079075 6.88142" stroke-width="1"></path><path id="Vector_31" stroke="#0046ef" stroke-linecap="round" stroke-linejoin="round" d="M72.91957000000001 72.560375a39.94925 39.94925 0 0 1 15.861295 -8.3182" stroke-width="1"></path><path id="Vector_32" stroke="#0046ef" stroke-linecap="round" stroke-linejoin="round" d="m22.79346 37.900545 47.555029999999995 35.34041" stroke-width="1"></path><path id="Vector_33" stroke="#0046ef" stroke-linecap="round" stroke-linejoin="round" d="m153.71954 135.589645 24.31183 18.205515000000002" stroke-width="1"></path><path id="Vector_34" stroke="#0046ef" stroke-linecap="round" stroke-linejoin="round" d="m97.85526499999999 69.74352999999999 -2.552175 -2.15517c0.693515 0.168155 1.40693 0.23879999999999998 2.11935 0.20895" stroke-width="1"></path><path id="Vector_35" stroke="#0046ef" stroke-linecap="round" stroke-linejoin="round" d="M99.670145 60.25322c2.7979399999999996 6.27646 -0.016915 7.449565 -2.247705 7.54409a9.582845 9.582845 0 0 0 0.8178899999999999 2.8855 3.91831 3.91831 0 0 0 4.000895 2.4676c4.16905 -0.373125 38.98211 -6.88142 38.98211 -6.88142 2.0954699999999997 4.1153200000000005 3.11634 8.343074999999999 2.36611 12.740974999999999L109.05199999999999 85.20782s0.10945 4.782965000000001 0.359195 12.628540000000001" stroke-width="1"></path><path id="Vector_36" stroke="#0046ef" stroke-linecap="round" stroke-linejoin="round" d="m86.00183 90.36888499999999 2.2685999999999997 -0.17014500000000002 -0.9830599999999999 5.463545" stroke-width="1"></path><path id="Vector_37" stroke="#0046ef" stroke-linecap="round" stroke-linejoin="round" d="m63.82626500000001 90.0475 21.570604999999997 -6.635655a18.390585 18.390585 0 0 0 -3.346185 -13.6116l-22.27009 6.73018c-4.577 1.4925 -7.17594 4.32825 -6.8058 8.526155000000001a7.891345 7.891345 0 0 0 8.563965 7.1838999999999995l24.46307 -1.871595L88.55499999999999 100.86116" stroke-width="1"></path><path id="Vector_38" stroke="#0046ef" stroke-linecap="round" stroke-linejoin="round" d="M130.16391000000002 115.777205c-0.7562 0.32138500000000003 -1.720355 0.6965 -2.930275 1.17211" stroke-width="1"></path><path id="Vector_39" stroke="#0046ef" stroke-linecap="round" stroke-linejoin="round" d="M88.55499999999999 100.86116c-2.76013 3.10042 -4.33223 11.666375 -0.34029000000000004 17.373694999999998 3.9342300000000003 5.62573 11.05445 5.877465 17.87418 4.856595 7.63961 -1.143255 16.00358 -4.13124 21.14574 -6.142135 -0.41591 7.127185 -0.7562 16.67421 -1.342255 27.2232a27.795325 27.795325 0 0 0 16.352825 1.039775c1.6258299999999999 -12.741969999999998 3.19793 -27.129669999999997 3.74319 -41.307425a9.94403 9.94403 0 0 0 -3.298425 -7.79085 9.93806 9.93806 0 0 0 -8.101289999999999 -2.436755 229.23805 229.23805 0 0 0 -25.124745 5.217779999999999l-0.056715 -1.05868L88.55499999999999 100.86116Z" stroke-width="1"></path><path id="Vector_40" stroke="#0046ef" stroke-linecap="round" stroke-linejoin="round" d="M109.462935 98.89504c-1.32335 0.359195 -2.627795 0.71839 -3.9322399999999997 1.0945" stroke-width="1"></path><path id="Vector_41" stroke="#0046ef" stroke-linecap="round" stroke-linejoin="round" d="m88.213715 118.234855 -2.83575 14.386705 -20.965645000000002 -7.1838999999999995c-4.782965000000001 4.896395 -6.368 10.114175 -6.711275 16.97669l29.775375 11.286285a10.675355 10.675355 0 0 0 14.14094 -7.37295l5.9610449999999995 -23.482000000000003" stroke-width="1"></path><path id="Vector_42" stroke="#0046ef" stroke-linecap="round" stroke-linejoin="round" d="m95.87024000000001 123.11234499999999 10.9649 2.665605" stroke-width="1"></path><path id="Vector_43" stroke="#0046ef" stroke-linecap="round" stroke-linejoin="round" d="m116.11749499999999 83.941185 -7.07047 1.266635 -0.056715 -2.4198399999999998 7.127185 1.153205Z" stroke-width="1"></path><path id="Vector_44" stroke="#0046ef" stroke-linecap="round" stroke-linejoin="round" d="m94.69813 75.52846 63.595425 -6.80182" stroke-width="1"></path><path id="Vector_45" stroke="#0046ef" stroke-linecap="round" stroke-linejoin="round" d="m158.162215 67.153545 0.26467 3.0058949999999998 3.119325 -1.73926 -3.3839949999999996 -1.266635Z" stroke-width="1"></path><path id="Vector_46" stroke="#0046ef" stroke-linecap="round" stroke-linejoin="round" d="M91.01265 60.97161c-2.028805 -1.258675 -3.17405 2.076565 0.54725 3.4974250000000002 0.17711 0.122385 0.315415 0.29252999999999996 0.398 0.49152999999999997 0.71839 2.23079 0.90744 3.6815 0.52934 5.06654 -0.2985 -2.985 -3.5700600000000002 -5.03072 -6.0117899999999995 -8.6565 -2.73625 -4.066565 4.0794999999999995 -11.220614999999999 7.67543 -11.45643 3.59593 -0.235815 3.762095 4.49939 5.52026 10.341035a19.897015 19.897015 0 0 0 -0.7562 -1.531305c-4.008855 -7.561999999999999 -6.94709 -1.47658 -6.6665 1.8526900000000002 0.062685 0.74625 -0.05373 1.129325 -1.236785 0.395015Z" stroke-width="1"></path><path id="Vector_47" stroke="#0046ef" stroke-linecap="round" stroke-linejoin="round" d="M128.6535 145.04214499999998a27.6212 27.6212 0 0 0 10.756945 0.6965c0.17014500000000002 3.32728 1.53031 6.824705 2.514365 10.000745 1.791 5.771 3.354145 11.053455 3.8805 17.0145a70.2271 70.2271 0 0 1 -10.62461 -9.887315c-2.816845 -3.17604 -5.06654 -6.08741 -7.164 -8.3182a57.344835 57.344835 0 0 1 0.6368 -9.50623v0Z" stroke-width="1"></path><path id="Vector_48" stroke="#0046ef" stroke-linecap="round" stroke-linejoin="round" d="M128.12216999999998 149.919635c1.99 2.174075 4.1193 4.91729 6.766 7.883385a71.22011 71.22011 0 0 0 10.13308 9.509215000000001" stroke-width="1"></path><path id="Vector_49" stroke="#0046ef" stroke-linecap="round" stroke-linejoin="round" d="M31.32857 136.28913a70.77435 70.77435 0 0 1 12.70416 -7.013755000000001c3.8974149999999996 -1.6915 7.354045 -2.930275 10.149 -4.215815a51.683285 51.683285 0 0 1 7.883385 3.119325 22.32382 22.32382 0 0 0 -3.98597 10.225615c-3.0058949999999998 -0.623865 -6.368 -0.45471500000000004 -9.37688 -0.510435 -5.176985 -0.094525 -12.31014 -0.420885 -17.373694999999998 -1.604935Z" stroke-width="1"></path><path id="Vector_50" stroke="#0046ef" stroke-linecap="round" stroke-linejoin="round" d="m91.48428 70.15944 44.80485 -37.299565" stroke-width="1"></path><path id="Vector_51" stroke="#0046ef" stroke-linecap="round" stroke-linejoin="round" d="m148.76643 103.73472 -57.4314 -23.124795" stroke-width="1"></path><path id="Vector_52" stroke="#0046ef" stroke-linecap="round" stroke-linejoin="round" d="M26.29984 27.812240000000003 31.85791 44.6755l-17.638365 -0.49152999999999997" stroke-width="1"></path><path id="Vector_53" stroke="#0046ef" stroke-linecap="round" stroke-linejoin="round" d="m23.690949999999997 51.17882 17.657269999999997 0.586055 -5.55807 -16.806545" stroke-width="1"></path><path id="Vector_54" stroke="#0046ef" stroke-linecap="round" stroke-linejoin="round" d="m116.32544999999999 173.134975 0.9263450000000001 10.908185" stroke-width="1"></path><path id="Vector_55" stroke="#0046ef" stroke-linecap="round" stroke-linejoin="round" d="m122.242715 178.10699 -10.908185 0.9452499999999999" stroke-width="1"></path><path id="Vector_56" stroke="#0046ef" stroke-linecap="round" stroke-linejoin="round" d="M19.4025 92.675295a2.808885 2.808885 0 1 1 -3.043705 -2.552175 2.7979399999999996 2.7979399999999996 0 0 1 3.043705 2.552175v0Z" stroke-width="1"></path><path id="Vector_57" stroke="#0046ef" stroke-linecap="round" stroke-linejoin="round" d="m73.63795999999999 17.773685 3.837715 4.518295 3.3839949999999996 -7.33514" stroke-width="1"></path><path id="Vector_58" stroke="#0046ef" stroke-linecap="round" stroke-linejoin="round" d="m185.952565 90.406695 0.32138500000000003 3.81881" stroke-width="1"></path><path id="Vector_59" stroke="#0046ef" stroke-linecap="round" stroke-linejoin="round" d="m182.98448 98.15774499999999 -3.81881 0.32138500000000003" stroke-width="1"></path><path id="Vector_60" stroke="#0046ef" stroke-linecap="round" stroke-linejoin="round" d="m194.025 97.19359 -3.81881 0.32138500000000003" stroke-width="1"></path><path id="Vector_61" stroke="#0046ef" stroke-linecap="round" stroke-linejoin="round" d="m187.238105 105.266025 -0.32138500000000003 -3.81881" stroke-width="1"></path><path id="Vector_62" stroke="#0046ef" stroke-linecap="round" stroke-linejoin="round" d="M190.20619 97.51497499999999a3.6367249999999998 3.6367249999999998 0 0 1 -3.9322399999999997 -3.288475 3.63971 3.63971 0 0 1 -3.28947 3.9322399999999997 3.6367249999999998 3.6367249999999998 0 0 1 3.9322399999999997 3.28947 3.63971 3.63971 0 0 1 3.28947 -3.933235v0Z" stroke-width="1"></path><path id="Vector_63" stroke="#0046ef" stroke-linecap="round" stroke-linejoin="round" d="M99.95372 72.635a6.11925 6.11925 0 0 1 -4.72625 1.3044449999999999" stroke-width="1"></path><path id="Vector_64" stroke="#0046ef" stroke-linecap="round" stroke-linejoin="round" d="M75.585175 71.766365c3.1571350000000002 3.535235 4.34815 8.0595 3.573045 13.573789999999999" stroke-width="1"></path><path id="Vector_65" stroke="#0046ef" stroke-linecap="round" stroke-linejoin="round" d="m178.03136999999998 153.79516 -18.243325000000002 -4.4426749999999995 8.46944 -2.87356v-8.43163l9.773885 15.747865Z" stroke-width="1"></path><path id="Vector_66" stroke="#0046ef" stroke-linecap="round" stroke-linejoin="round" d="M85.58592 81.04872c2.87356 -0.18905 8.24258 -0.6427700000000001 8.358 -0.661675 1.4556850000000001 -0.11343 1.342255 -2.476555 -0.434815 -2.476555 0 0 0.49152999999999997 -0.034825 0.71839 -0.056715 1.4925 -0.14726 1.3243449999999999 -2.5810299999999997 -0.510435 -2.552175 -0.0995 0 -0.3781 -0.018904999999999998 -0.3781 -0.018904999999999998 0.2985 -0.018904999999999998 0.5671499999999999 -0.037809999999999996 0.850725 -0.07561999999999999 1.4467299999999998 -0.199 1.31141 -2.4685949999999997 -0.269645 -2.623815a2.486505 2.486505 0 0 0 -0.54327 0.014924999999999999c0.15123999999999999 -0.018904999999999998 0.32138500000000003 -0.05373 0.47262499999999996 -0.07561999999999999 1.4417550000000001 -0.21293 1.17211 -2.6865 -0.5671499999999999 -2.53327 -0.6427700000000001 0.056715 -1.1342999999999999 0.0995 -1.791 0.17014500000000002 -0.17014500000000002 -1.47459 -0.6427700000000001 -1.537275 -2.476555 -1.5124 -2.2885 0.030845 -2.53327 0.037809999999999996 -3.1949449999999997 1.266635a5.360065 5.360065 0 0 1 -2.189 2.476555" stroke-width="1"></path><path id="Vector_67" stroke="#0046ef" stroke-linecap="round" stroke-linejoin="round" d="M151.091745 72.46585c-2.15517 0.20695999999999998 -2.66461 -2.355165 -0.6049599999999999 -2.703415 1.5323 -0.2587 2.6268000000000002 -0.38407 3.85662 -0.5482450000000001 2.05965 -0.27462000000000003 2.516355 2.4676 0.850725 2.816845 -1.0198749999999999 0.213925 -2.11736 0.24477 -4.102385 0.434815Z" stroke-width="1"></path><path id="Vector_68" stroke="#0046ef" stroke-linecap="round" stroke-linejoin="round" d="M151.129555 63.54269c0.737295 -0.15123999999999999 1.2855400000000001 -0.24576499999999998 2.00393 -0.3781 1.9472150000000001 -0.359195 2.49546 2.34422 0.9263450000000001 2.779035a16.88515 16.88515 0 0 1 -2.4705850000000003 0.43183" stroke-width="1"></path><path id="Vector_69" stroke="#0046ef" stroke-linecap="round" stroke-linejoin="round" d="M151.129555 75.471745c-2.098455 0.148255 -2.53327 -2.34621 -0.52934 -2.627795 1.4925 -0.209945 2.552175 -0.2985 3.74319 -0.41591 1.99 -0.18905 2.388 2.448695 0.7562 2.741225 -0.982065 0.176115 -2.060645 0.16716 -3.97005 0.30247999999999997Z" stroke-width="1"></path><path id="Vector_70" stroke="#0046ef" stroke-linecap="round" stroke-linejoin="round" d="M151.59919499999998 66.45207c0.787045 -0.11243500000000001 1.463645 -0.16915000000000002 2.233775 -0.2985 2.07955 -0.32138500000000003 2.6098850000000002 2.44372 0.9263450000000001 2.854655 -1.0198749999999999 0.24875 -2.136265 0.2985 -4.140194999999999 0.5482450000000001a1.393 1.393 0 0 1 -1.24773 -2.363125" stroke-width="1"></path><path id="Vector_71" stroke="#0046ef" stroke-linecap="round" stroke-linejoin="round" d="M143.81332 77.15429c3.4974250000000002 -0.6427700000000001 8.450535 -1.2099199999999999 10.870375000000001 -1.909405" stroke-width="1"></path><path id="Vector_72" stroke="#0046ef" stroke-dasharray="3.2 5.29" stroke-linecap="round" stroke-linejoin="round" d="m95.00061 99.91591000000001 0.8129149999999999 8.24258" stroke-width="1"></path><path id="Vector_73" stroke="#0046ef" stroke-dasharray="3.2 5.29" stroke-linecap="round" stroke-linejoin="round" d="M95.8185 108.15650000000001a4.40387 4.40387 0 0 0 5.217779999999999 3.8944300000000003" stroke-width="1"></path><path id="Vector_74" stroke="#0046ef" stroke-dasharray="3.2 5.29" stroke-linecap="round" stroke-linejoin="round" d="m101.031305 112.05292 29.75647 -5.728215" stroke-width="1"></path><path id="Vector_75" stroke="#0046ef" stroke-dasharray="3.2 5.29" stroke-linecap="round" stroke-linejoin="round" d="M132.62156000000002 106.324705a4.402875 4.402875 0 0 1 3.007885 2.39397 4.3979 4.3979 0 0 1 0.43083499999999997 1.925325" stroke-width="1"></path><path id="Vector_76" stroke="#0046ef" stroke-dasharray="3.2 5.29" stroke-linecap="round" stroke-linejoin="round" d="m136.02446 110.861905 -1.682545 35.068774999999995" stroke-width="1"></path><path id="Vector_77" stroke="#0046ef" stroke-dasharray="3.2 5.29" stroke-linecap="round" stroke-linejoin="round" d="m97.49607 123.39592 -3.421805 15.105094999999999" stroke-width="1"></path><path id="Vector_78" stroke="#0046ef" stroke-dasharray="3.2 5.29" stroke-linecap="round" stroke-linejoin="round" d="M94.074265 138.504a5.531205 5.531205 0 0 1 -2.64272 3.584985 5.53817 5.53817 0 0 1 -4.4277500000000005 0.47958999999999996" stroke-width="1"></path><path id="Vector_79" stroke="#0046ef" stroke-dasharray="3.2 5.29" stroke-linecap="round" stroke-linejoin="round" d="m87.0227 142.56559000000001 -27.86597 -8.715205000000001" stroke-width="1"></path><path id="Vector_80" stroke="#0046ef" stroke-linecap="round" stroke-linejoin="round" d="m44.959075 41.80194 -27.79035 -20.776595 5.63369 16.86326L4.975 37.321455l27.86597 20.663165 17.732889999999998 0.6805800000000001 -5.6147849999999995 -16.86326Z" stroke-width="1"></path><path id="Vector_81" stroke="#0046ef" stroke-linecap="round" stroke-linejoin="round" d="M57.757760000000005 126.288385c-2.7223200000000003 1.228825 -6.05159 2.432775 -9.773885 4.045669999999999a69.59428 69.59428 0 0 0 -12.27432 6.7261999999999995" stroke-width="1"></path></g></g></svg>